<?xml version="1.0" encoding="UTF-8" standalone="no"?>
<svg
   xmlns:ns="&amp;ns_sfw;"
   xmlns:dc="http://purl.org/dc/elements/1.1/"
   xmlns:cc="http://creativecommons.org/ns#"
   xmlns:rdf="http://www.w3.org/1999/02/22-rdf-syntax-ns#"
   xmlns:svg="http://www.w3.org/2000/svg"
   xmlns="http://www.w3.org/2000/svg"
   xmlns:sodipodi="http://sodipodi.sourceforge.net/DTD/sodipodi-0.dtd"
   xmlns:inkscape="http://www.inkscape.org/namespaces/inkscape"
   version="1.1"
   id="Layer_1"
   x="0px"
   y="0px"
   viewBox="0 0 1287 448"
   style="enable-background:new 0 0 1287 448;"
   xml:space="preserve"
   sodipodi:docname="dark-loader.svg"
   inkscape:version="1.0.1 (1.0.1+r73)"><defs
   id="defs25"><inkscape:path-effect
     effect="fillet_chamfer"
     id="path-effect1732"
     is_visible="true"
     lpeversion="1"
     satellites_param="F,0,0,1,0,6.2560539,0,1 @ F,0,0,1,0,0,0,1 @ F,0,0,1,0,0,0,1 @ F,0,0,1,0,6.1673884,0,1"
     unit="px"
     method="auto"
     mode="F"
     radius="0"
     chamfer_steps="1"
     flexible="false"
     use_knot_distance="true"
     apply_no_radius="true"
     apply_with_radius="true"
     only_selected="false"
     hide_knots="false" /><inkscape:path-effect
     effect="fillet_chamfer"
     id="path-effect1746"
     is_visible="true"
     lpeversion="1"
     satellites_param="F,0,0,1,0,6.2560539,0,1 @ F,0,0,1,0,0,0,1 @ F,0,0,1,0,0,0,1 @ F,0,0,1,0,6.1673884,0,1"
     unit="px"
     method="auto"
     mode="F"
     radius="0"
     chamfer_steps="1"
     flexible="false"
     use_knot_distance="true"
     apply_no_radius="true"
     apply_with_radius="true"
     only_selected="false"
     hide_knots="false" /><inkscape:path-effect
     effect="fillet_chamfer"
     id="path-effect1752"
     is_visible="true"
     lpeversion="1"
     satellites_param="F,0,0,1,0,6.2560539,0,1 @ F,0,0,1,0,0,0,1 @ F,0,0,1,0,0,0,1 @ F,0,0,1,0,6.1673884,0,1"
     unit="px"
     method="auto"
     mode="F"
     radius="0"
     chamfer_steps="1"
     flexible="false"
     use_knot_distance="true"
     apply_no_radius="true"
     apply_with_radius="true"
     only_selected="false"
     hide_knots="false" /><inkscape:path-effect
     effect="fillet_chamfer"
     id="path-effect1758"
     is_visible="true"
     lpeversion="1"
     satellites_param="F,0,0,1,0,6.2560539,0,1 @ F,0,0,1,0,0,0,1 @ F,0,0,1,0,0,0,1 @ F,0,0,1,0,6.1673884,0,1"
     unit="px"
     method="auto"
     mode="F"
     radius="0"
     chamfer_steps="1"
     flexible="false"
     use_knot_distance="true"
     apply_no_radius="true"
     apply_with_radius="true"
     only_selected="false"
     hide_knots="false" /><inkscape:path-effect
     effect="fillet_chamfer"
     id="path-effect1766"
     is_visible="true"
     lpeversion="1"
     satellites_param="F,0,0,1,0,6.2560539,0,1 @ F,0,0,1,0,0,0,1 @ F,0,0,1,0,0,0,1 @ F,0,0,1,0,6.1673884,0,1"
     unit="px"
     method="auto"
     mode="F"
     radius="0"
     chamfer_steps="1"
     flexible="false"
     use_knot_distance="true"
     apply_no_radius="true"
     apply_with_radius="true"
     only_selected="false"
     hide_knots="false" /><inkscape:path-effect
     effect="fillet_chamfer"
     id="path-effect1772"
     is_visible="true"
     lpeversion="1"
     satellites_param="F,0,0,1,0,6.2560539,0,1 @ F,0,0,1,0,0,0,1 @ F,0,0,1,0,0,0,1 @ F,0,0,1,0,6.1673884,0,1"
     unit="px"
     method="auto"
     mode="F"
     radius="0"
     chamfer_steps="1"
     flexible="false"
     use_knot_distance="true"
     apply_no_radius="true"
     apply_with_radius="true"
     only_selected="false"
     hide_knots="false" /><inkscape:path-effect
     effect="fillet_chamfer"
     id="path-effect1778"
     is_visible="true"
     lpeversion="1"
     satellites_param="F,0,0,1,0,6.2560539,0,1 @ F,0,0,1,0,0,0,1 @ F,0,0,1,0,0,0,1 @ F,0,0,1,0,6.1673884,0,1"
     unit="px"
     method="auto"
     mode="F"
     radius="0"
     chamfer_steps="1"
     flexible="false"
     use_knot_distance="true"
     apply_no_radius="true"
     apply_with_radius="true"
     only_selected="false"
     hide_knots="false" /></defs><sodipodi:namedview
   pagecolor="#ffffff"
   bordercolor="#666666"
   borderopacity="1"
   objecttolerance="10"
   gridtolerance="10"
   guidetolerance="10"
   inkscape:pageopacity="0"
   inkscape:pageshadow="2"
   inkscape:window-width="1848"
   inkscape:window-height="1016"
   id="namedview23"
   showgrid="false"
   inkscape:zoom="0.50777001"
   inkscape:cx="789.77891"
   inkscape:cy="499.33721"
   inkscape:window-x="72"
   inkscape:window-y="27"
   inkscape:window-maximized="1"
   inkscape:current-layer="Layer_1" />
<style
   type="text/css"
   id="style2">
	.st0{fill:#0648B3;stroke:#0648B3;stroke-width:10;stroke-miterlimit:10;}
	.st1{fill:#EE5050;stroke:#EE5050;stroke-width:3;stroke-linecap:round;stroke-miterlimit:10;}
</style>
<metadata
   id="metadata4">
	<ns:sfw>
		<ns:slices />
		<ns:sliceSourceBounds
   bottomLeftOrigin="true"
   height="436"
   width="1272.6"
   x="7"
   y="7" />
	</ns:sfw>
<rdf:RDF><cc:Work
     rdf:about=""><dc:format>image/svg+xml</dc:format><dc:type
       rdf:resource="http://purl.org/dc/dcmitype/StillImage" /></cc:Work></rdf:RDF></metadata>

<g
   id="g1801"
   transform="matrix(6.1117953,0,0,5.8587101,-12305.69,-1483.7218)"
   style="stroke-width:0.631615"><path
     id="path1728"
     style="color:#000000;font-style:normal;font-variant:normal;font-weight:normal;font-stretch:normal;font-size:medium;line-height:normal;font-family:sans-serif;font-variant-ligatures:normal;font-variant-position:normal;font-variant-caps:normal;font-variant-numeric:normal;font-variant-alternates:normal;font-variant-east-asian:normal;font-feature-settings:normal;font-variation-settings:normal;text-indent:0;text-align:start;text-decoration:none;text-decoration-line:none;text-decoration-style:solid;text-decoration-color:#000000;letter-spacing:normal;word-spacing:normal;text-transform:none;writing-mode:lr-tb;direction:ltr;text-orientation:mixed;dominant-baseline:auto;baseline-shift:baseline;text-anchor:start;white-space:normal;shape-padding:0;shape-margin:0;inline-size:0;clip-rule:nonzero;display:inline;overflow:visible;visibility:visible;isolation:auto;mix-blend-mode:normal;color-interpolation:sRGB;color-interpolation-filters:linearRGB;solid-color:#000000;solid-opacity:1;vector-effect:none;fill:#0d1b48;fill-opacity:1;fill-rule:nonzero;stroke:none;stroke-width:8.35575;stroke-linecap:butt;stroke-linejoin:miter;stroke-miterlimit:4;stroke-dasharray:none;stroke-dashoffset:0;stroke-opacity:1;color-rendering:auto;image-rendering:auto;shape-rendering:auto;text-rendering:auto;enable-background:accumulate;stop-color:#000000"
     d="m 2081.3357,299.42001 c 0,15.99545 13.1097,29.10313 29.105,29.10313 15.9955,0 29.1037,-13.10768 29.1037,-29.10313 h -13.2287 c 0,8.84586 -7.0291,15.875 -15.875,15.875 -8.8458,-10e-6 -15.8749,-7.02915 -15.8749,-15.875 z" /><path
     style="fill:#0d1b48;fill-opacity:1;stroke:none;stroke-width:8.52281;stroke-miterlimit:4;stroke-dasharray:none"
     d="m 2222.7517,321.49995 0.042,-22.84911 -13.2291,-0.0243 -0.042,22.93778 a 6.1674817,6.1674817 45.104768 0 0 6.1562,6.1787 l 0.8057,0.001 a 6.2559593,6.2559593 135.10477 0 0 6.2674,-6.24455 z"
     id="path1730"
     inkscape:path-effect="#path-effect1732"
     inkscape:original-d="m 2222.7403,327.75599 0.053,-29.10515 -13.2291,-0.0243 -0.053,29.10516 z" /><path
     id="path1734"
     style="color:#000000;font-style:normal;font-variant:normal;font-weight:normal;font-stretch:normal;font-size:medium;line-height:normal;font-family:sans-serif;font-variant-ligatures:normal;font-variant-position:normal;font-variant-caps:normal;font-variant-numeric:normal;font-variant-alternates:normal;font-variant-east-asian:normal;font-feature-settings:normal;font-variation-settings:normal;text-indent:0;text-align:start;text-decoration:none;text-decoration-line:none;text-decoration-style:solid;text-decoration-color:#000000;letter-spacing:normal;word-spacing:normal;text-transform:none;writing-mode:lr-tb;direction:ltr;text-orientation:mixed;dominant-baseline:auto;baseline-shift:baseline;text-anchor:start;white-space:normal;shape-padding:0;shape-margin:0;inline-size:0;clip-rule:nonzero;display:inline;overflow:visible;visibility:visible;isolation:auto;mix-blend-mode:normal;color-interpolation:sRGB;color-interpolation-filters:linearRGB;solid-color:#000000;solid-opacity:1;vector-effect:none;fill:#0d1b48;fill-opacity:1;fill-rule:nonzero;stroke:none;stroke-width:8.35575;stroke-linecap:butt;stroke-linejoin:miter;stroke-miterlimit:4;stroke-dasharray:none;stroke-dashoffset:0;stroke-opacity:1;color-rendering:auto;image-rendering:auto;shape-rendering:auto;text-rendering:auto;enable-background:accumulate;stop-color:#000000"
     d="m 2193.7434,270.02364 c -0.018,-3e-5 -0.035,5.2e-4 -0.053,5.2e-4 v 13.22813 c 0.01,0 0.019,-5.4e-4 0.029,-5.2e-4 8.8458,0.0162 15.8618,7.05811 15.8455,15.90394 l 13.2302,0.0243 c 0.029,-15.99542 -13.0562,-29.12703 -29.0514,-29.15636 z" /><path
     id="path1736"
     style="fill:#0d1b48;fill-opacity:1;stroke:none;stroke-width:8.52281;stroke-miterlimit:4;stroke-dasharray:none"
     d="m 2185.8618,270.00814 a 6.1673464,6.1673464 0 0 0 -6.1785,6.15621 v 0.80564 a 6.2560964,6.2560964 0 0 0 6.2446,6.26731 l 8.2915,0.015 v -13.22865 z" /><path
     style="color:#000000;font-style:normal;font-variant:normal;font-weight:normal;font-stretch:normal;font-size:medium;line-height:normal;font-family:sans-serif;font-variant-ligatures:normal;font-variant-position:normal;font-variant-caps:normal;font-variant-numeric:normal;font-variant-alternates:normal;font-variant-east-asian:normal;font-feature-settings:normal;font-variation-settings:normal;text-indent:0;text-align:start;text-decoration:none;text-decoration-line:none;text-decoration-style:solid;text-decoration-color:#000000;letter-spacing:normal;word-spacing:normal;text-transform:none;writing-mode:lr-tb;direction:ltr;text-orientation:mixed;dominant-baseline:auto;baseline-shift:baseline;text-anchor:start;white-space:normal;shape-padding:0;shape-margin:0;inline-size:0;clip-rule:nonzero;display:inline;overflow:visible;visibility:visible;isolation:auto;mix-blend-mode:normal;color-interpolation:sRGB;color-interpolation-filters:linearRGB;solid-color:#000000;solid-opacity:1;vector-effect:none;fill:#0d1b48;fill-opacity:1;fill-rule:nonzero;stroke:none;stroke-width:8.35575;stroke-linecap:butt;stroke-linejoin:miter;stroke-miterlimit:4;stroke-dasharray:none;stroke-dashoffset:0;stroke-opacity:1;color-rendering:auto;image-rendering:auto;shape-rendering:auto;text-rendering:auto;enable-background:accumulate;stop-color:#000000"
     d="m 2047.4777,269.97783 c -15.9954,6e-5 -29.1035,13.10811 -29.1035,29.10352 0,15.99541 13.1081,29.10541 29.1035,29.10547 15.9954,10e-6 29.1035,-13.11002 29.1035,-29.10547 0,-15.99546 -13.1081,-29.10353 -29.1035,-29.10352 z m 0,13.22852 c 8.8458,-10e-6 15.875,7.02914 15.875,15.875 0,8.84586 -7.0292,15.87501 -15.875,15.875 -8.8458,-3e-5 -15.875,-7.02917 -15.875,-15.875 0,-8.84583 7.0292,-15.87497 15.875,-15.875 z"
     id="path1738" /><ellipse
     style="fill:#d10754;fill-opacity:1;stroke:none;stroke-width:8.52281;stroke-miterlimit:4;stroke-dasharray:none"
     id="ellipse1742"
     cx="2150.9124"
     cy="276.65906"
     rx="6.6145835"
     ry="6.6354403" /><path
     style="fill:#0d1b48;fill-opacity:1;stroke:none;stroke-width:8.52281;stroke-miterlimit:4;stroke-dasharray:none"
     d="m 2139.5028,298.83081 0.042,-22.84911 -13.2291,-0.0243 -0.042,22.93778 a 6.1674817,6.1674817 45.104768 0 0 6.1562,6.1787 l 0.8057,0.001 a 6.2559593,6.2559593 135.10477 0 0 6.2674,-6.24455 z"
     id="path1744"
     inkscape:path-effect="#path-effect1746"
     inkscape:original-d="m 2139.4914,305.08685 0.053,-29.10515 -13.2291,-0.0243 -0.053,29.10516 z" /><path
     id="path1748"
     style="fill:#0d1b48;fill-opacity:1;stroke:none;stroke-width:8.52281;stroke-miterlimit:4;stroke-dasharray:none"
     d="m 2139.531,276.15661 a 6.1673464,6.1673464 0 0 0 -6.1562,-6.1785 h -0.8056 a 6.2560964,6.2560964 0 0 0 -6.2673,6.2446 l -0.015,8.2915 h 13.2286 z" /><path
     style="fill:#0d1b48;fill-opacity:1;stroke:none;stroke-width:8.52281;stroke-miterlimit:4;stroke-dasharray:none"
     d="m 2094.565,298.83081 0.042,-22.84911 -13.2291,-0.0243 -0.042,22.93778 a 6.1674817,6.1674817 45.104768 0 0 6.1562,6.1787 l 0.8057,0.001 a 6.2559593,6.2559593 135.10477 0 0 6.2674,-6.24455 z"
     id="path1750"
     inkscape:path-effect="#path-effect1752"
     inkscape:original-d="m 2094.5536,305.08685 0.053,-29.10515 -13.2291,-0.0243 -0.053,29.10516 z" /><path
     id="path1754"
     style="fill:#0d1b48;fill-opacity:1;stroke:none;stroke-width:8.52281;stroke-miterlimit:4;stroke-dasharray:none"
     d="m 2094.5932,276.15661 a 6.1673464,6.1673464 0 0 0 -6.1562,-6.1785 h -0.8056 a 6.2560964,6.2560964 0 0 0 -6.2673,6.2446 l -0.015,8.2915 h 13.2286 z" /><path
     style="fill:#0d1b48;fill-opacity:1;stroke:none;stroke-width:8.52281;stroke-miterlimit:4;stroke-dasharray:none"
     d="m 2157.5169,322.00586 0.042,-22.84911 -13.2291,-0.0243 -0.042,22.93778 a 6.1674817,6.1674817 45.104768 0 0 6.1562,6.1787 l 0.8057,0.001 a 6.2559593,6.2559593 135.10477 0 0 6.2674,-6.24455 z"
     id="path1756"
     inkscape:path-effect="#path-effect1758"
     inkscape:original-d="m 2157.5055,328.2619 0.053,-29.10515 -13.2291,-0.0243 -0.053,29.10516 z" /><path
     id="path1760"
     style="fill:#0d1b48;fill-opacity:1;stroke:none;stroke-width:8.52281;stroke-miterlimit:4;stroke-dasharray:none"
     d="m 2157.5451,292.52779 a 6.1673464,6.1673464 0 0 0 -6.1562,-6.1785 h -0.8056 a 6.2560964,6.2560964 0 0 0 -6.2673,6.2446 l -0.015,8.2915 h 13.2286 z" /><ellipse
     style="fill:#d10754;fill-opacity:1;stroke:none;stroke-width:8.52281;stroke-miterlimit:4;stroke-dasharray:none"
     id="ellipse1762"
     cx="2168.9246"
     cy="276.65906"
     rx="6.6145835"
     ry="6.6354403" /><path
     style="fill:#0d1b48;fill-opacity:1;stroke:none;stroke-width:8.52281;stroke-miterlimit:4;stroke-dasharray:none"
     d="m 2175.5311,322.00586 0.042,-22.84911 -13.2291,-0.0243 -0.042,22.93778 a 6.1674817,6.1674817 45.104768 0 0 6.1562,6.1787 l 0.8057,0.001 a 6.2559593,6.2559593 135.10477 0 0 6.2674,-6.24455 z"
     id="path1764"
     inkscape:path-effect="#path-effect1766"
     inkscape:original-d="m 2175.5197,328.2619 0.053,-29.10515 -13.2291,-0.0243 -0.053,29.10516 z" /><path
     id="path1768"
     style="fill:#0d1b48;fill-opacity:1;stroke:none;stroke-width:8.52281;stroke-miterlimit:4;stroke-dasharray:none"
     d="m 2175.5593,292.52779 a 6.1673464,6.1673464 0 0 0 -6.1562,-6.1785 h -0.8056 a 6.2560964,6.2560964 0 0 0 -6.2673,6.2446 l -0.015,8.2915 h 13.2286 z" /><path
     style="fill:#0d1b48;fill-opacity:1;stroke:none;stroke-width:8.52281;stroke-miterlimit:4;stroke-dasharray:none"
     d="m 2193.5452,322.00586 0.042,-22.84911 -13.2291,-0.0243 -0.042,22.93778 a 6.1674817,6.1674817 45.104768 0 0 6.1562,6.1787 l 0.8057,0.001 a 6.2559593,6.2559593 135.10477 0 0 6.2674,-6.24455 z"
     id="path1770"
     inkscape:path-effect="#path-effect1772"
     inkscape:original-d="m 2193.5338,328.2619 0.053,-29.10515 -13.2291,-0.0243 -0.053,29.10516 z" /><path
     id="path1774"
     style="fill:#0d1b48;fill-opacity:1;stroke:none;stroke-width:8.52281;stroke-miterlimit:4;stroke-dasharray:none"
     d="m 2193.5734,292.52779 a 6.1673464,6.1673464 0 0 0 -6.1562,-6.1785 h -0.8056 a 6.2560964,6.2560964 0 0 0 -6.2673,6.2446 l -0.015,8.2915 h 13.2286 z" /><path
     style="fill:#0d1b48;fill-opacity:1;stroke:none;stroke-width:8.52281;stroke-miterlimit:4;stroke-dasharray:none"
     d="m 2117.0339,298.83081 0.042,-22.84911 -13.2291,-0.0243 -0.042,22.93778 a 6.1674817,6.1674817 45.104768 0 0 6.1562,6.1787 l 0.8057,0.001 a 6.2559593,6.2559593 135.10477 0 0 6.2674,-6.24455 z"
     id="path1776"
     inkscape:path-effect="#path-effect1778"
     inkscape:original-d="m 2117.0225,305.08685 0.053,-29.10515 -13.2291,-0.0243 -0.053,29.10516 z" /><path
     id="path1780"
     style="fill:#0d1b48;fill-opacity:1;stroke:none;stroke-width:8.52281;stroke-miterlimit:4;stroke-dasharray:none"
     d="m 2117.0621,276.15661 a 6.1673464,6.1673464 0 0 0 -6.1562,-6.1785 h -0.8056 a 6.2560964,6.2560964 0 0 0 -6.2673,6.2446 l -0.015,8.2915 h 13.2286 z" /></g></svg>
