<?xml version="1.0" encoding="UTF-8" standalone="no"?>
<svg
   xmlns:ns="&amp;ns_sfw;"
   xmlns:dc="http://purl.org/dc/elements/1.1/"
   xmlns:cc="http://creativecommons.org/ns#"
   xmlns:rdf="http://www.w3.org/1999/02/22-rdf-syntax-ns#"
   xmlns:svg="http://www.w3.org/2000/svg"
   xmlns="http://www.w3.org/2000/svg"
   xmlns:sodipodi="http://sodipodi.sourceforge.net/DTD/sodipodi-0.dtd"
   xmlns:inkscape="http://www.inkscape.org/namespaces/inkscape"
   version="1.1"
   id="Layer_1"
   x="0px"
   y="0px"
   viewBox="0 0 1287 448"
   style="enable-background:new 0 0 1287 448;"
   xml:space="preserve"
   sodipodi:docname="dark.svg"
   inkscape:version="1.0.1 (1.0.1+r73)"><defs
   id="defs27"><inkscape:path-effect
     effect="fillet_chamfer"
     id="path-effect1935"
     is_visible="true"
     lpeversion="1"
     satellites_param="F,0,0,1,0,6.2560539,0,1 @ F,0,0,1,0,0,0,1 @ F,0,0,1,0,0,0,1 @ F,0,0,1,0,6.1673884,0,1"
     unit="px"
     method="auto"
     mode="F"
     radius="0"
     chamfer_steps="1"
     flexible="false"
     use_knot_distance="true"
     apply_no_radius="true"
     apply_with_radius="true"
     only_selected="false"
     hide_knots="false" /><inkscape:path-effect
     effect="fillet_chamfer"
     id="path-effect1949"
     is_visible="true"
     lpeversion="1"
     satellites_param="F,0,0,1,0,6.2560539,0,1 @ F,0,0,1,0,0,0,1 @ F,0,0,1,0,0,0,1 @ F,0,0,1,0,6.1673884,0,1"
     unit="px"
     method="auto"
     mode="F"
     radius="0"
     chamfer_steps="1"
     flexible="false"
     use_knot_distance="true"
     apply_no_radius="true"
     apply_with_radius="true"
     only_selected="false"
     hide_knots="false" /><inkscape:path-effect
     effect="fillet_chamfer"
     id="path-effect1955"
     is_visible="true"
     lpeversion="1"
     satellites_param="F,0,0,1,0,6.2560539,0,1 @ F,0,0,1,0,0,0,1 @ F,0,0,1,0,0,0,1 @ F,0,0,1,0,6.1673884,0,1"
     unit="px"
     method="auto"
     mode="F"
     radius="0"
     chamfer_steps="1"
     flexible="false"
     use_knot_distance="true"
     apply_no_radius="true"
     apply_with_radius="true"
     only_selected="false"
     hide_knots="false" /><inkscape:path-effect
     effect="fillet_chamfer"
     id="path-effect1961"
     is_visible="true"
     lpeversion="1"
     satellites_param="F,0,0,1,0,6.2560539,0,1 @ F,0,0,1,0,0,0,1 @ F,0,0,1,0,0,0,1 @ F,0,0,1,0,6.1673884,0,1"
     unit="px"
     method="auto"
     mode="F"
     radius="0"
     chamfer_steps="1"
     flexible="false"
     use_knot_distance="true"
     apply_no_radius="true"
     apply_with_radius="true"
     only_selected="false"
     hide_knots="false" /><inkscape:path-effect
     effect="fillet_chamfer"
     id="path-effect1969"
     is_visible="true"
     lpeversion="1"
     satellites_param="F,0,0,1,0,6.2560539,0,1 @ F,0,0,1,0,0,0,1 @ F,0,0,1,0,0,0,1 @ F,0,0,1,0,6.1673884,0,1"
     unit="px"
     method="auto"
     mode="F"
     radius="0"
     chamfer_steps="1"
     flexible="false"
     use_knot_distance="true"
     apply_no_radius="true"
     apply_with_radius="true"
     only_selected="false"
     hide_knots="false" /><inkscape:path-effect
     effect="fillet_chamfer"
     id="path-effect1975"
     is_visible="true"
     lpeversion="1"
     satellites_param="F,0,0,1,0,6.2560539,0,1 @ F,0,0,1,0,0,0,1 @ F,0,0,1,0,0,0,1 @ F,0,0,1,0,6.1673884,0,1"
     unit="px"
     method="auto"
     mode="F"
     radius="0"
     chamfer_steps="1"
     flexible="false"
     use_knot_distance="true"
     apply_no_radius="true"
     apply_with_radius="true"
     only_selected="false"
     hide_knots="false" /><inkscape:path-effect
     effect="fillet_chamfer"
     id="path-effect1981"
     is_visible="true"
     lpeversion="1"
     satellites_param="F,0,0,1,0,6.2560539,0,1 @ F,0,0,1,0,0,0,1 @ F,0,0,1,0,0,0,1 @ F,0,0,1,0,6.1673884,0,1"
     unit="px"
     method="auto"
     mode="F"
     radius="0"
     chamfer_steps="1"
     flexible="false"
     use_knot_distance="true"
     apply_no_radius="true"
     apply_with_radius="true"
     only_selected="false"
     hide_knots="false" /></defs><sodipodi:namedview
   pagecolor="#ffffff"
   bordercolor="#666666"
   borderopacity="1"
   objecttolerance="10"
   gridtolerance="10"
   guidetolerance="10"
   inkscape:pageopacity="0"
   inkscape:pageshadow="2"
   inkscape:window-width="1848"
   inkscape:window-height="1016"
   id="namedview25"
   showgrid="false"
   inkscape:zoom="0.50777001"
   inkscape:cx="599.42745"
   inkscape:cy="524.71741"
   inkscape:window-x="72"
   inkscape:window-y="27"
   inkscape:window-maximized="1"
   inkscape:current-layer="Layer_1" />
<style
   type="text/css"
   id="style2">
	.st0{fill:#0648B3;stroke:#0648B3;stroke-width:10;stroke-miterlimit:10;}
	.st1{fill:#EE5050;stroke:#EE5050;stroke-width:3;stroke-linecap:round;stroke-miterlimit:10;}
</style>
<metadata
   id="metadata4">
	<ns:sfw>
		<ns:slices />
		<ns:sliceSourceBounds
   bottomLeftOrigin="true"
   height="436"
   width="1272.6"
   x="7"
   y="7" />
	</ns:sfw>
<rdf:RDF><cc:Work
     rdf:about=""><dc:format>image/svg+xml</dc:format><dc:type
       rdf:resource="http://purl.org/dc/dcmitype/StillImage" /></cc:Work></rdf:RDF></metadata>

<g
   id="g2005"
   transform="matrix(6.1791104,0,0,6.1791104,-13134.648,-1639.2678)"
   style="stroke-width:0.611662"><path
     id="path1931"
     style="color:#000000;font-style:normal;font-variant:normal;font-weight:normal;font-stretch:normal;font-size:medium;line-height:normal;font-family:sans-serif;font-variant-ligatures:normal;font-variant-position:normal;font-variant-caps:normal;font-variant-numeric:normal;font-variant-alternates:normal;font-variant-east-asian:normal;font-feature-settings:normal;font-variation-settings:normal;text-indent:0;text-align:start;text-decoration:none;text-decoration-line:none;text-decoration-style:solid;text-decoration-color:#000000;letter-spacing:normal;word-spacing:normal;text-transform:none;writing-mode:lr-tb;direction:ltr;text-orientation:mixed;dominant-baseline:auto;baseline-shift:baseline;text-anchor:start;white-space:normal;shape-padding:0;shape-margin:0;inline-size:0;clip-rule:nonzero;display:inline;overflow:visible;visibility:visible;isolation:auto;mix-blend-mode:normal;color-interpolation:sRGB;color-interpolation-filters:linearRGB;solid-color:#000000;solid-opacity:1;vector-effect:none;fill:#0d1b48;fill-opacity:1;fill-rule:nonzero;stroke:none;stroke-width:8.09181;stroke-linecap:butt;stroke-linejoin:miter;stroke-miterlimit:4;stroke-dasharray:none;stroke-dashoffset:0;stroke-opacity:1;color-rendering:auto;image-rendering:auto;shape-rendering:auto;text-rendering:auto;enable-background:accumulate;stop-color:#000000"
     d="m 2190.5457,301.71258 c 0,15.99545 13.1097,29.10313 29.105,29.10313 15.9955,0 29.1037,-13.10768 29.1037,-29.10313 h -13.2287 c 0,8.84586 -7.0291,15.875 -15.875,15.875 -8.8458,-10e-6 -15.8749,-7.02915 -15.8749,-15.875 z" /><path
     style="fill:#0d1b48;fill-opacity:1;stroke:none;stroke-width:8.25358;stroke-miterlimit:4;stroke-dasharray:none"
     d="m 2331.9617,323.79252 0.042,-22.84911 -13.2291,-0.0243 -0.042,22.93778 a 6.1674817,6.1674817 45.104768 0 0 6.1562,6.1787 l 0.8057,10e-4 a 6.2559593,6.2559593 135.10477 0 0 6.2674,-6.24455 z"
     id="path1933"
     inkscape:path-effect="#path-effect1935"
     inkscape:original-d="m 2331.9503,330.04856 0.053,-29.10515 -13.2291,-0.0243 -0.053,29.10516 z" /><path
     id="path1937"
     style="color:#000000;font-style:normal;font-variant:normal;font-weight:normal;font-stretch:normal;font-size:medium;line-height:normal;font-family:sans-serif;font-variant-ligatures:normal;font-variant-position:normal;font-variant-caps:normal;font-variant-numeric:normal;font-variant-alternates:normal;font-variant-east-asian:normal;font-feature-settings:normal;font-variation-settings:normal;text-indent:0;text-align:start;text-decoration:none;text-decoration-line:none;text-decoration-style:solid;text-decoration-color:#000000;letter-spacing:normal;word-spacing:normal;text-transform:none;writing-mode:lr-tb;direction:ltr;text-orientation:mixed;dominant-baseline:auto;baseline-shift:baseline;text-anchor:start;white-space:normal;shape-padding:0;shape-margin:0;inline-size:0;clip-rule:nonzero;display:inline;overflow:visible;visibility:visible;isolation:auto;mix-blend-mode:normal;color-interpolation:sRGB;color-interpolation-filters:linearRGB;solid-color:#000000;solid-opacity:1;vector-effect:none;fill:#0d1b48;fill-opacity:1;fill-rule:nonzero;stroke:none;stroke-width:8.09181;stroke-linecap:butt;stroke-linejoin:miter;stroke-miterlimit:4;stroke-dasharray:none;stroke-dashoffset:0;stroke-opacity:1;color-rendering:auto;image-rendering:auto;shape-rendering:auto;text-rendering:auto;enable-background:accumulate;stop-color:#000000"
     d="m 2302.9534,272.31621 c -0.018,-3e-5 -0.035,5.2e-4 -0.053,5.2e-4 v 13.22813 c 0.01,0 0.019,-5.4e-4 0.029,-5.2e-4 8.8458,0.0162 15.8618,7.05811 15.8455,15.90394 l 13.2302,0.0243 c 0.029,-15.99542 -13.0562,-29.12703 -29.0514,-29.15636 z" /><path
     id="path1939"
     style="fill:#0d1b48;fill-opacity:1;stroke:none;stroke-width:8.25358;stroke-miterlimit:4;stroke-dasharray:none"
     d="m 2295.0718,272.30071 a 6.1673464,6.1673464 0 0 0 -6.1785,6.15621 v 0.80564 a 6.2560964,6.2560964 0 0 0 6.2446,6.26731 l 8.2915,0.015 v -13.22865 z" /><path
     style="color:#000000;font-style:normal;font-variant:normal;font-weight:normal;font-stretch:normal;font-size:medium;line-height:normal;font-family:sans-serif;font-variant-ligatures:normal;font-variant-position:normal;font-variant-caps:normal;font-variant-numeric:normal;font-variant-alternates:normal;font-variant-east-asian:normal;font-feature-settings:normal;font-variation-settings:normal;text-indent:0;text-align:start;text-decoration:none;text-decoration-line:none;text-decoration-style:solid;text-decoration-color:#000000;letter-spacing:normal;word-spacing:normal;text-transform:none;writing-mode:lr-tb;direction:ltr;text-orientation:mixed;dominant-baseline:auto;baseline-shift:baseline;text-anchor:start;white-space:normal;shape-padding:0;shape-margin:0;inline-size:0;clip-rule:nonzero;display:inline;overflow:visible;visibility:visible;isolation:auto;mix-blend-mode:normal;color-interpolation:sRGB;color-interpolation-filters:linearRGB;solid-color:#000000;solid-opacity:1;vector-effect:none;fill:#0d1b48;fill-opacity:1;fill-rule:nonzero;stroke:none;stroke-width:8.09181;stroke-linecap:butt;stroke-linejoin:miter;stroke-miterlimit:4;stroke-dasharray:none;stroke-dashoffset:0;stroke-opacity:1;color-rendering:auto;image-rendering:auto;shape-rendering:auto;text-rendering:auto;enable-background:accumulate;stop-color:#000000"
     d="m 2156.6877,272.2704 c -15.9954,6e-5 -29.1035,13.10811 -29.1035,29.10352 0,15.99541 13.1081,29.10541 29.1035,29.10547 15.9954,10e-6 29.1035,-13.11002 29.1035,-29.10547 0,-15.99546 -13.1081,-29.10353 -29.1035,-29.10352 z m 0,13.22852 c 8.8458,-10e-6 15.875,7.02914 15.875,15.875 0,8.84586 -7.0292,15.87501 -15.875,15.875 -8.8458,-3e-5 -15.875,-7.02917 -15.875,-15.875 0,-8.84583 7.0292,-15.87497 15.875,-15.875 z"
     id="path1941" /><circle
     style="fill:#d10754;fill-opacity:1;stroke:none;stroke-width:8.25358;stroke-miterlimit:4;stroke-dasharray:none"
     id="circle1943"
     cx="2156.5706"
     cy="301.0773"
     r="6.614583" /><ellipse
     style="fill:#d10754;fill-opacity:1;stroke:none;stroke-width:8.25358;stroke-miterlimit:4;stroke-dasharray:none"
     id="ellipse1945"
     cx="2260.1223"
     cy="278.95163"
     rx="6.6145835"
     ry="6.6354403" /><path
     style="fill:#0d1b48;fill-opacity:1;stroke:none;stroke-width:8.25358;stroke-miterlimit:4;stroke-dasharray:none"
     d="m 2248.7128,301.12338 0.042,-22.84911 -13.2291,-0.0243 -0.042,22.93778 a 6.1674817,6.1674817 45.104768 0 0 6.1562,6.1787 l 0.8057,0.001 a 6.2559593,6.2559593 135.10477 0 0 6.2674,-6.24455 z"
     id="path1947"
     inkscape:path-effect="#path-effect1949"
     inkscape:original-d="m 2248.7014,307.37942 0.053,-29.10515 -13.2291,-0.0243 -0.053,29.10516 z" /><path
     id="path1951"
     style="fill:#0d1b48;fill-opacity:1;stroke:none;stroke-width:8.25358;stroke-miterlimit:4;stroke-dasharray:none"
     d="m 2248.741,278.44918 a 6.1673464,6.1673464 0 0 0 -6.1562,-6.1785 h -0.8056 a 6.2560964,6.2560964 0 0 0 -6.2673,6.2446 l -0.015,8.2915 h 13.2286 z" /><path
     style="fill:#0d1b48;fill-opacity:1;stroke:none;stroke-width:8.25358;stroke-miterlimit:4;stroke-dasharray:none"
     d="m 2203.775,301.12338 0.042,-22.84911 -13.2291,-0.0243 -0.042,22.93778 a 6.1674817,6.1674817 45.104768 0 0 6.1562,6.1787 l 0.8057,0.001 a 6.2559593,6.2559593 135.10477 0 0 6.2674,-6.24455 z"
     id="path1953"
     inkscape:path-effect="#path-effect1955"
     inkscape:original-d="m 2203.7636,307.37942 0.053,-29.10515 -13.2291,-0.0243 -0.053,29.10516 z" /><path
     id="path1957"
     style="fill:#0d1b48;fill-opacity:1;stroke:none;stroke-width:8.25358;stroke-miterlimit:4;stroke-dasharray:none"
     d="m 2203.8032,278.44918 a 6.1673464,6.1673464 0 0 0 -6.1562,-6.1785 h -0.8056 a 6.2560964,6.2560964 0 0 0 -6.2673,6.2446 l -0.015,8.2915 h 13.2286 z" /><path
     style="fill:#0d1b48;fill-opacity:1;stroke:none;stroke-width:8.25358;stroke-miterlimit:4;stroke-dasharray:none"
     d="m 2266.7269,324.29843 0.042,-22.84911 -13.2291,-0.0243 -0.042,22.93778 a 6.1674817,6.1674817 45.104768 0 0 6.1562,6.1787 l 0.8057,0.001 a 6.2559593,6.2559593 135.10477 0 0 6.2674,-6.24455 z"
     id="path1959"
     inkscape:path-effect="#path-effect1961"
     inkscape:original-d="m 2266.7155,330.55447 0.053,-29.10515 -13.2291,-0.0243 -0.053,29.10516 z" /><path
     id="path1963"
     style="fill:#0d1b48;fill-opacity:1;stroke:none;stroke-width:8.25358;stroke-miterlimit:4;stroke-dasharray:none"
     d="m 2266.7551,294.82036 a 6.1673464,6.1673464 0 0 0 -6.1562,-6.1785 h -0.8056 a 6.2560964,6.2560964 0 0 0 -6.2673,6.2446 l -0.015,8.2915 h 13.2286 z" /><ellipse
     style="fill:#d10754;fill-opacity:1;stroke:none;stroke-width:8.25358;stroke-miterlimit:4;stroke-dasharray:none"
     id="ellipse1965"
     cx="2278.1345"
     cy="278.95163"
     rx="6.6145835"
     ry="6.6354403" /><path
     style="fill:#0d1b48;fill-opacity:1;stroke:none;stroke-width:8.25358;stroke-miterlimit:4;stroke-dasharray:none"
     d="m 2284.7411,324.29843 0.042,-22.84911 -13.2291,-0.0243 -0.042,22.93778 a 6.1674817,6.1674817 45.104768 0 0 6.1562,6.1787 l 0.8057,0.001 a 6.2559593,6.2559593 135.10477 0 0 6.2674,-6.24455 z"
     id="path1967"
     inkscape:path-effect="#path-effect1969"
     inkscape:original-d="m 2284.7297,330.55447 0.053,-29.10515 -13.2291,-0.0243 -0.053,29.10516 z" /><path
     id="path1971"
     style="fill:#0d1b48;fill-opacity:1;stroke:none;stroke-width:8.25358;stroke-miterlimit:4;stroke-dasharray:none"
     d="m 2284.7693,294.82036 a 6.1673464,6.1673464 0 0 0 -6.1562,-6.1785 h -0.8056 a 6.2560964,6.2560964 0 0 0 -6.2673,6.2446 l -0.015,8.2915 h 13.2286 z" /><path
     style="fill:#0d1b48;fill-opacity:1;stroke:none;stroke-width:8.25358;stroke-miterlimit:4;stroke-dasharray:none"
     d="m 2302.7552,324.29843 0.042,-22.84911 -13.2291,-0.0243 -0.042,22.93778 a 6.1674817,6.1674817 45.104768 0 0 6.1562,6.1787 l 0.8057,0.001 a 6.2559593,6.2559593 135.10477 0 0 6.2674,-6.24455 z"
     id="path1973"
     inkscape:path-effect="#path-effect1975"
     inkscape:original-d="m 2302.7438,330.55447 0.053,-29.10515 -13.2291,-0.0243 -0.053,29.10516 z" /><path
     id="path1977"
     style="fill:#0d1b48;fill-opacity:1;stroke:none;stroke-width:8.25358;stroke-miterlimit:4;stroke-dasharray:none"
     d="m 2302.7834,294.82036 a 6.1673464,6.1673464 0 0 0 -6.1562,-6.1785 h -0.8056 a 6.2560964,6.2560964 0 0 0 -6.2673,6.2446 l -0.015,8.2915 h 13.2286 z" /><path
     style="fill:#0d1b48;fill-opacity:1;stroke:none;stroke-width:8.25358;stroke-miterlimit:4;stroke-dasharray:none"
     d="m 2226.2439,301.12338 0.042,-22.84911 -13.2291,-0.0243 -0.042,22.93778 a 6.1674817,6.1674817 45.104768 0 0 6.1562,6.1787 l 0.8057,0.001 a 6.2559593,6.2559593 135.10477 0 0 6.2674,-6.24455 z"
     id="path1979"
     inkscape:path-effect="#path-effect1981"
     inkscape:original-d="m 2226.2325,307.37942 0.053,-29.10515 -13.2291,-0.0243 -0.053,29.10516 z" /><path
     id="path1983"
     style="fill:#0d1b48;fill-opacity:1;stroke:none;stroke-width:8.25358;stroke-miterlimit:4;stroke-dasharray:none"
     d="m 2226.2721,278.44918 a 6.1673464,6.1673464 0 0 0 -6.1562,-6.1785 h -0.8056 a 6.2560964,6.2560964 0 0 0 -6.2673,6.2446 l -0.015,8.2915 h 13.2286 z" /></g></svg>
