<?xml version="1.0" encoding="UTF-8" standalone="no"?>
<!DOCTYPE svg PUBLIC "-//W3C//DTD SVG 1.1//EN" "http://www.w3.org/Graphics/SVG/1.1/DTD/svg11.dtd">
<svg width="100%" height="100%" viewBox="0 0 1287 448" version="1.1" xmlns="http://www.w3.org/2000/svg" xmlns:xlink="http://www.w3.org/1999/xlink" xml:space="preserve" xmlns:serif="http://www.serif.com/" style="fill-rule:evenodd;clip-rule:evenodd;stroke-linecap:round;stroke-miterlimit:10;">
    <g id="g1801">
        <g>
            <g transform="matrix(42.3727,0,0,42.3727,-25202.1,-1456.34)">
                <g transform="matrix(12,0,0,12,594.476,43.9026)">
                    <path d="M0.406,-0.746C0.199,-0.746 0.03,-0.578 0.03,-0.37C0.03,-0.162 0.199,0.006 0.406,0.006C0.614,0.006 0.782,-0.162 0.782,-0.37C0.782,-0.578 0.614,-0.746 0.406,-0.746ZM0.405,-0.587C0.523,-0.587 0.622,-0.488 0.622,-0.37C0.622,-0.252 0.523,-0.153 0.405,-0.153C0.285,-0.153 0.19,-0.25 0.19,-0.37C0.19,-0.49 0.285,-0.587 0.405,-0.587Z" style="fill:rgb(6,72,179);fill-rule:nonzero;"/>
                </g>
                <g transform="matrix(12,0,0,12,604.22,43.9026)">
                    <path d="M0.706,-0.495C0.666,-0.512 0.619,-0.493 0.603,-0.452L0.525,-0.261L0.452,-0.439C0.441,-0.466 0.415,-0.482 0.388,-0.482C0.36,-0.482 0.334,-0.466 0.323,-0.439L0.25,-0.261L0.172,-0.452C0.156,-0.493 0.11,-0.512 0.069,-0.495C0.029,-0.478 0.009,-0.433 0.026,-0.392L0.166,-0.049C0.185,-0.003 0.229,-0 0.247,-0C0.274,-0 0.3,-0.016 0.311,-0.043L0.388,-0.231L0.464,-0.043C0.476,-0.014 0.508,-0 0.535,-0C0.553,-0 0.59,-0.003 0.609,-0.049L0.749,-0.392C0.766,-0.433 0.746,-0.478 0.706,-0.495Z" style="fill:rgb(6,72,179);fill-rule:nonzero;"/>
                </g>
                <g transform="matrix(12,0,0,12,613.46,43.9026)">
                    <path d="M0.188,-0.597C0.188,-0.559 0.157,-0.528 0.12,-0.528C0.082,-0.528 0.051,-0.559 0.051,-0.597C0.051,-0.634 0.082,-0.665 0.12,-0.665C0.157,-0.665 0.188,-0.634 0.188,-0.597ZM0.12,-0C0.076,-0 0.04,-0.036 0.04,-0.08L0.04,-0.426C0.04,-0.47 0.076,-0.506 0.12,-0.506C0.164,-0.506 0.2,-0.47 0.2,-0.426L0.2,-0.08C0.2,-0.036 0.164,-0 0.12,-0Z" style="fill:rgb(6,72,179);fill-rule:nonzero;"/>
                </g>
                <g transform="matrix(12,0,0,12,616.28,43.9026)">
                    <path d="M0.188,-0.597C0.188,-0.559 0.157,-0.528 0.12,-0.528C0.082,-0.528 0.051,-0.559 0.051,-0.597C0.051,-0.634 0.082,-0.665 0.12,-0.665C0.157,-0.665 0.188,-0.634 0.188,-0.597ZM0.12,-0C0.076,-0 0.04,-0.036 0.04,-0.08L0.04,-0.426C0.04,-0.47 0.076,-0.506 0.12,-0.506C0.164,-0.506 0.2,-0.47 0.2,-0.426L0.2,-0.08C0.2,-0.036 0.164,-0 0.12,-0Z" style="fill:rgb(6,72,179);fill-rule:nonzero;"/>
                </g>
                <g transform="matrix(12,0,0,12,619.1,43.9026)">
                    <path d="M0.26,-0.505C0.225,-0.505 0.192,-0.497 0.163,-0.483C0.15,-0.493 0.133,-0.5 0.115,-0.5C0.073,-0.5 0.04,-0.466 0.04,-0.424L0.04,-0.079C0.04,-0.036 0.075,-0 0.119,-0C0.163,-0 0.198,-0.036 0.198,-0.079L0.198,-0.285C0.198,-0.319 0.226,-0.346 0.26,-0.346C0.294,-0.346 0.321,-0.319 0.321,-0.285L0.321,-0.079C0.321,-0.036 0.357,-0 0.401,-0C0.445,-0 0.48,-0.036 0.48,-0.079L0.48,-0.285C0.48,-0.406 0.382,-0.505 0.26,-0.505Z" style="fill:rgb(6,72,179);fill-rule:nonzero;"/>
                </g>
            </g>
            <g transform="matrix(0.694872,0,0,0.694872,807.599,55.1336)">
                <circle cx="67" cy="65" r="58.5" style="fill:rgb(238,80,80);stroke:rgb(238,80,80);stroke-width:3px;"/>
            </g>
            <g transform="matrix(0.694872,0,0,0.694872,923.284,55.1336)">
                <circle cx="67" cy="65" r="58.5" style="fill:rgb(238,80,80);stroke:rgb(238,80,80);stroke-width:3px;"/>
            </g>
        </g>
    </g>
</svg>
