<?xml version="1.0" encoding="UTF-8" standalone="no"?>
<svg
   xmlns:ns="&amp;#38;ns_sfw;"
   xmlns:dc="http://purl.org/dc/elements/1.1/"
   xmlns:cc="http://creativecommons.org/ns#"
   xmlns:rdf="http://www.w3.org/1999/02/22-rdf-syntax-ns#"
   xmlns:svg="http://www.w3.org/2000/svg"
   xmlns="http://www.w3.org/2000/svg"
   xmlns:xlink="http://www.w3.org/1999/xlink"
   xmlns:sodipodi="http://sodipodi.sourceforge.net/DTD/sodipodi-0.dtd"
   xmlns:inkscape="http://www.inkscape.org/namespaces/inkscape"
   version="1.1"
   id="Layer_1"
   x="0px"
   y="0px"
   viewBox="0 0 1287 448"
   style="enable-background:new 0 0 1287 448;"
   xml:space="preserve"
   sodipodi:docname="dark-loader.svg"
   inkscape:version="1.0.1 (1.0.1+r73)"><defs
   id="defs25"><inkscape:path-effect
     effect="fillet_chamfer"
     id="path-effect1732"
     is_visible="true"
     lpeversion="1"
     satellites_param="F,0,0,1,0,6.2560539,0,1 @ F,0,0,1,0,0,0,1 @ F,0,0,1,0,0,0,1 @ F,0,0,1,0,6.1673884,0,1"
     unit="px"
     method="auto"
     mode="F"
     radius="0"
     chamfer_steps="1"
     flexible="false"
     use_knot_distance="true"
     apply_no_radius="true"
     apply_with_radius="true"
     only_selected="false"
     hide_knots="false" /><inkscape:path-effect
     effect="fillet_chamfer"
     id="path-effect1746"
     is_visible="true"
     lpeversion="1"
     satellites_param="F,0,0,1,0,6.2560539,0,1 @ F,0,0,1,0,0,0,1 @ F,0,0,1,0,0,0,1 @ F,0,0,1,0,6.1673884,0,1"
     unit="px"
     method="auto"
     mode="F"
     radius="0"
     chamfer_steps="1"
     flexible="false"
     use_knot_distance="true"
     apply_no_radius="true"
     apply_with_radius="true"
     only_selected="false"
     hide_knots="false" /><inkscape:path-effect
     effect="fillet_chamfer"
     id="path-effect1752"
     is_visible="true"
     lpeversion="1"
     satellites_param="F,0,0,1,0,6.2560539,0,1 @ F,0,0,1,0,0,0,1 @ F,0,0,1,0,0,0,1 @ F,0,0,1,0,6.1673884,0,1"
     unit="px"
     method="auto"
     mode="F"
     radius="0"
     chamfer_steps="1"
     flexible="false"
     use_knot_distance="true"
     apply_no_radius="true"
     apply_with_radius="true"
     only_selected="false"
     hide_knots="false" /><inkscape:path-effect
     effect="fillet_chamfer"
     id="path-effect1758"
     is_visible="true"
     lpeversion="1"
     satellites_param="F,0,0,1,0,6.2560539,0,1 @ F,0,0,1,0,0,0,1 @ F,0,0,1,0,0,0,1 @ F,0,0,1,0,6.1673884,0,1"
     unit="px"
     method="auto"
     mode="F"
     radius="0"
     chamfer_steps="1"
     flexible="false"
     use_knot_distance="true"
     apply_no_radius="true"
     apply_with_radius="true"
     only_selected="false"
     hide_knots="false" /><inkscape:path-effect
     effect="fillet_chamfer"
     id="path-effect1766"
     is_visible="true"
     lpeversion="1"
     satellites_param="F,0,0,1,0,6.2560539,0,1 @ F,0,0,1,0,0,0,1 @ F,0,0,1,0,0,0,1 @ F,0,0,1,0,6.1673884,0,1"
     unit="px"
     method="auto"
     mode="F"
     radius="0"
     chamfer_steps="1"
     flexible="false"
     use_knot_distance="true"
     apply_no_radius="true"
     apply_with_radius="true"
     only_selected="false"
     hide_knots="false" /><inkscape:path-effect
     effect="fillet_chamfer"
     id="path-effect1772"
     is_visible="true"
     lpeversion="1"
     satellites_param="F,0,0,1,0,6.2560539,0,1 @ F,0,0,1,0,0,0,1 @ F,0,0,1,0,0,0,1 @ F,0,0,1,0,6.1673884,0,1"
     unit="px"
     method="auto"
     mode="F"
     radius="0"
     chamfer_steps="1"
     flexible="false"
     use_knot_distance="true"
     apply_no_radius="true"
     apply_with_radius="true"
     only_selected="false"
     hide_knots="false" /><inkscape:path-effect
     effect="fillet_chamfer"
     id="path-effect1778"
     is_visible="true"
     lpeversion="1"
     satellites_param="F,0,0,1,0,6.2560539,0,1 @ F,0,0,1,0,0,0,1 @ F,0,0,1,0,0,0,1 @ F,0,0,1,0,6.1673884,0,1"
     unit="px"
     method="auto"
     mode="F"
     radius="0"
     chamfer_steps="1"
     flexible="false"
     use_knot_distance="true"
     apply_no_radius="true"
     apply_with_radius="true"
     only_selected="false"
     hide_knots="false" /><linearGradient
     inkscape:collect="always"
     xlink:href="#500"
     id="linearGradient2507"
     gradientUnits="userSpaceOnUse"
     gradientTransform="translate(-206.48563,-211.90841)"
     x1="65.156738"
     y1="118.93021"
     x2="130.10574"
     y2="118.93021" /><linearGradient
     id="500"
     inkscape:collect="always"><stop
       id="stop1521"
       offset="0"
       style="stop-color:#0052cc;stop-opacity:1;" /><stop
       id="stop1523"
       offset="1"
       style="stop-color:#0052cc;stop-opacity:0;" /></linearGradient><linearGradient
     inkscape:collect="always"
     xlink:href="#500"
     id="linearGradient2509"
     gradientUnits="userSpaceOnUse"
     gradientTransform="rotate(180,-5.6115738,12.975992)"
     x1="65.156738"
     y1="118.93021"
     x2="130.10574"
     y2="118.93021" /><linearGradient
     inkscape:collect="always"
     xlink:href="#500"
     id="linearGradient2511"
     gradientUnits="userSpaceOnUse"
     gradientTransform="rotate(90,100.34263,-90.266819)"
     x1="65.156738"
     y1="118.93021"
     x2="130.10574"
     y2="118.93021" /><linearGradient
     inkscape:collect="always"
     xlink:href="#500"
     id="linearGradient2513"
     gradientUnits="userSpaceOnUse"
     gradientTransform="rotate(-90,-111.56577,116.21882)"
     x1="65.156738"
     y1="118.93021"
     x2="130.10574"
     y2="118.93021" /></defs><sodipodi:namedview
   pagecolor="#ffffff"
   bordercolor="#666666"
   borderopacity="1"
   objecttolerance="10"
   gridtolerance="10"
   guidetolerance="10"
   inkscape:pageopacity="0"
   inkscape:pageshadow="2"
   inkscape:window-width="1848"
   inkscape:window-height="1016"
   id="namedview23"
   showgrid="false"
   inkscape:zoom="0.17952381"
   inkscape:cx="943.31504"
   inkscape:cy="-135.95525"
   inkscape:window-x="72"
   inkscape:window-y="27"
   inkscape:window-maximized="1"
   inkscape:current-layer="Layer_1"
   inkscape:document-rotation="0" />
<style
   type="text/css"
   id="style2">
	.st0{fill:#0648B3;stroke:#0648B3;stroke-width:10;stroke-miterlimit:10;}
	.st1{fill:#EE5050;stroke:#EE5050;stroke-width:3;stroke-linecap:round;stroke-miterlimit:10;}
</style>
<metadata
   id="metadata4">
	<ns:sfw>
		<ns:slices />
		<ns:sliceSourceBounds
   bottomLeftOrigin="true"
   height="436"
   width="1272.6"
   x="7"
   y="7" />
	</ns:sfw>
<rdf:RDF><cc:Work
     rdf:about=""><dc:format>image/svg+xml</dc:format><dc:type
       rdf:resource="http://purl.org/dc/dcmitype/StillImage" /></cc:Work></rdf:RDF></metadata>

<g
   id="g909"
   transform="matrix(1.4270746,0,0,1.3972798,-1149.5826,-1003.3013)"
   style="stroke-width:0.708165"><text
     id="text1573"
     y="1001.0889"
     x="1089.8175"
     style="font-size:320.466px;line-height:1.25;font-family:Ubuntu;-inkscape-font-specification:Ubuntu;fill:#253858;fill-opacity:1;stroke-width:5.67358"
     xml:space="preserve"><tspan
       style="font-style:normal;font-variant:normal;font-weight:bold;font-stretch:normal;font-family:Ubuntu;-inkscape-font-specification:'Ubuntu Bold';fill:#253858;fill-opacity:1;stroke-width:5.67358"
       y="1001.0889"
       x="1089.8175"
       id="tspan1571"
       sodipodi:role="line">wiin</tspan></text><path
     id="path2489"
     style="fill:none;stroke-width:0.708165"
     d="m 1294.4149,760.70119 a 70.999993,70.999993 0 0 0 -71,71.00002 70.999993,70.999993 0 0 0 71,71 70.999993,70.999993 0 0 0 71,-71 70.999993,70.999993 0 0 0 -8.416,-33.52929 c -0.5715,0.19238 -1.1398,0.37191 -1.7012,0.52146 -8.6696,5.74844 -16.6544,10.48456 -17.166,6.16407 -0.4251,-3.58915 0.059,-7.58196 1.4277,-11.13672 -0.8165,-0.87227 -1.6396,-1.85155 -2.4746,-2.96874 -0.038,-0.0491 -0.048,-0.0865 -0.074,-0.13077 -1.5064,-0.3292 -2.4984,-0.94401 -1.9551,-2.06253 1.6766,-3.45139 3.43,-6.36548 5.2676,-8.86133 -0.2952,-0.16819 -0.5877,-0.3428 -0.8692,-0.55075 -0.042,-0.0302 -0.078,-0.0711 -0.119,-0.10356 -9.5452,1.15355 -19.0945,2.26707 -28.6328,3.4707 -9.6387,0.62888 -19.7949,5.06552 -28.916,1.88671 -4.5088,-1.57138 -7.774,-10.00135 -4.5977,-13.56639 5.5185,-6.19378 15.6306,-5.61222 23.6328,-7.79883 1.7408,-0.47569 3.4873,-0.9275 5.2363,-1.3711 a 70.999993,70.999993 0 0 0 -11.6425,-0.96291 z" /><g
     transform="matrix(3.7795275,0,0,3.7795275,1352.8895,1229.764)"
     id="g2499"
     style="stroke-width:0.708165"><path
       d="m -108.8544,-125.12508 a 32.474627,32.146743 0 0 0 -32.4745,32.147133 32.474627,32.146743 0 0 0 32.4745,32.14662 32.474627,32.146743 0 0 0 32.474512,-32.14662 32.474627,32.146743 0 0 0 -32.260052,-32.146103 24.606248,24.357802 0 0 1 24.391792,24.35678 24.606248,24.357802 0 0 1 -24.606252,24.357803 24.606248,24.357802 0 0 1 -24.60624,-24.357803 24.606248,24.357802 0 0 1 24.60624,-24.35781 z"
       style="opacity:1;fill:url(#linearGradient2507);fill-opacity:1;stroke-width:0.326871"
       id="path2491" /><path
       id="path2493"
       style="opacity:1;fill:url(#linearGradient2509);fill-opacity:1;stroke-width:0.326871"
       d="m -108.8544,-60.831327 a 32.474627,32.146743 0 0 0 32.474512,-32.14713 32.474627,32.146743 0 0 0 -32.474512,-32.146623 32.474627,32.146743 0 0 0 -32.47449,32.146623 32.474627,32.146743 0 0 0 32.26004,32.1461 24.606248,24.357802 0 0 1 -24.39178,-24.35678 24.606248,24.357802 0 0 1 24.60623,-24.357803 24.606248,24.357802 0 0 1 24.606262,24.357803 24.606248,24.357802 0 0 1 -24.606262,24.35781 z" /><path
       d="m -76.707518,-92.978197 a 32.146743,32.474627 0 0 0 -32.147132,-32.474513 32.146743,32.474627 0 0 0 -32.14662,32.474513 32.146743,32.474627 0 0 0 32.14662,32.4745 32.146743,32.474627 0 0 0 32.146102,-32.26005 24.357802,24.606248 0 0 1 -24.356782,24.39179 24.357802,24.606248 0 0 1 -24.35781,-24.60624 24.357802,24.606248 0 0 1 24.35781,-24.606263 24.357802,24.606248 0 0 1 24.357812,24.606263 z"
       style="opacity:1;fill:url(#linearGradient2511);fill-opacity:1;stroke-width:0.326871"
       id="path2495" /><path
       d="m -141.00126,-92.978207 a 32.146743,32.474627 0 0 0 32.14712,32.47451 32.146743,32.474627 0 0 0 32.146622,-32.47451 32.146743,32.474627 0 0 0 -32.146622,-32.474503 32.146743,32.474627 0 0 0 -32.14609,32.260053 24.357802,24.606248 0 0 1 24.35678,-24.391793 24.357802,24.606248 0 0 1 24.357802,24.606243 24.357802,24.606248 0 0 1 -24.357802,24.60626 24.357802,24.606248 0 0 1 -24.35781,-24.60626 z"
       style="opacity:1;fill:url(#linearGradient2513);fill-opacity:1;stroke-width:0.326959;stroke-miterlimit:4;stroke-dasharray:none"
       id="path2497" /></g></g></svg>
