<?xml version="1.0" encoding="UTF-8" standalone="no"?>
<svg
   xmlns:ns="&amp;#38;ns_sfw;"
   xmlns:dc="http://purl.org/dc/elements/1.1/"
   xmlns:cc="http://creativecommons.org/ns#"
   xmlns:rdf="http://www.w3.org/1999/02/22-rdf-syntax-ns#"
   xmlns:svg="http://www.w3.org/2000/svg"
   xmlns="http://www.w3.org/2000/svg"
   xmlns:xlink="http://www.w3.org/1999/xlink"
   xmlns:sodipodi="http://sodipodi.sourceforge.net/DTD/sodipodi-0.dtd"
   xmlns:inkscape="http://www.inkscape.org/namespaces/inkscape"
   version="1.1"
   id="Layer_1"
   x="0px"
   y="0px"
   viewBox="0 0 1287 448"
   style="enable-background:new 0 0 1287 448;"
   xml:space="preserve"
   sodipodi:docname="light.svg"
   inkscape:version="1.0.1 (1.0.1+r73)"><defs
   id="defs29"><inkscape:path-effect
     effect="fillet_chamfer"
     id="path-effect1928"
     is_visible="true"
     lpeversion="1"
     satellites_param="F,0,0,1,0,6.2560539,0,1 @ F,0,0,1,0,0,0,1 @ F,0,0,1,0,0,0,1 @ F,0,0,1,0,6.1673884,0,1"
     unit="px"
     method="auto"
     mode="F"
     radius="0"
     chamfer_steps="1"
     flexible="false"
     use_knot_distance="true"
     apply_no_radius="true"
     apply_with_radius="true"
     only_selected="false"
     hide_knots="false" /><inkscape:path-effect
     effect="fillet_chamfer"
     id="path-effect1942"
     is_visible="true"
     lpeversion="1"
     satellites_param="F,0,0,1,0,6.2560539,0,1 @ F,0,0,1,0,0,0,1 @ F,0,0,1,0,0,0,1 @ F,0,0,1,0,6.1673884,0,1"
     unit="px"
     method="auto"
     mode="F"
     radius="0"
     chamfer_steps="1"
     flexible="false"
     use_knot_distance="true"
     apply_no_radius="true"
     apply_with_radius="true"
     only_selected="false"
     hide_knots="false" /><inkscape:path-effect
     effect="fillet_chamfer"
     id="path-effect1948"
     is_visible="true"
     lpeversion="1"
     satellites_param="F,0,0,1,0,6.2560539,0,1 @ F,0,0,1,0,0,0,1 @ F,0,0,1,0,0,0,1 @ F,0,0,1,0,6.1673884,0,1"
     unit="px"
     method="auto"
     mode="F"
     radius="0"
     chamfer_steps="1"
     flexible="false"
     use_knot_distance="true"
     apply_no_radius="true"
     apply_with_radius="true"
     only_selected="false"
     hide_knots="false" /><inkscape:path-effect
     effect="fillet_chamfer"
     id="path-effect1954"
     is_visible="true"
     lpeversion="1"
     satellites_param="F,0,0,1,0,6.2560539,0,1 @ F,0,0,1,0,0,0,1 @ F,0,0,1,0,0,0,1 @ F,0,0,1,0,6.1673884,0,1"
     unit="px"
     method="auto"
     mode="F"
     radius="0"
     chamfer_steps="1"
     flexible="false"
     use_knot_distance="true"
     apply_no_radius="true"
     apply_with_radius="true"
     only_selected="false"
     hide_knots="false" /><inkscape:path-effect
     effect="fillet_chamfer"
     id="path-effect1962"
     is_visible="true"
     lpeversion="1"
     satellites_param="F,0,0,1,0,6.2560539,0,1 @ F,0,0,1,0,0,0,1 @ F,0,0,1,0,0,0,1 @ F,0,0,1,0,6.1673884,0,1"
     unit="px"
     method="auto"
     mode="F"
     radius="0"
     chamfer_steps="1"
     flexible="false"
     use_knot_distance="true"
     apply_no_radius="true"
     apply_with_radius="true"
     only_selected="false"
     hide_knots="false" /><inkscape:path-effect
     effect="fillet_chamfer"
     id="path-effect1968"
     is_visible="true"
     lpeversion="1"
     satellites_param="F,0,0,1,0,6.2560539,0,1 @ F,0,0,1,0,0,0,1 @ F,0,0,1,0,0,0,1 @ F,0,0,1,0,6.1673884,0,1"
     unit="px"
     method="auto"
     mode="F"
     radius="0"
     chamfer_steps="1"
     flexible="false"
     use_knot_distance="true"
     apply_no_radius="true"
     apply_with_radius="true"
     only_selected="false"
     hide_knots="false" /><inkscape:path-effect
     effect="fillet_chamfer"
     id="path-effect1974"
     is_visible="true"
     lpeversion="1"
     satellites_param="F,0,0,1,0,6.2560539,0,1 @ F,0,0,1,0,0,0,1 @ F,0,0,1,0,0,0,1 @ F,0,0,1,0,6.1673884,0,1"
     unit="px"
     method="auto"
     mode="F"
     radius="0"
     chamfer_steps="1"
     flexible="false"
     use_knot_distance="true"
     apply_no_radius="true"
     apply_with_radius="true"
     only_selected="false"
     hide_knots="false" /><linearGradient
     inkscape:collect="always"
     id="linearGradient2592"><stop
       style="stop-color:#ffffff;stop-opacity:1;"
       offset="0"
       id="stop2588" /><stop
       style="stop-color:#ffffff;stop-opacity:0;"
       offset="1"
       id="stop2590" /></linearGradient><linearGradient
     inkscape:collect="always"
     xlink:href="#linearGradient2592"
     id="linearGradient2747"
     gradientUnits="userSpaceOnUse"
     x1="678.48285"
     y1="218.19489"
     x2="678.48285"
     y2="153.24588"
     gradientTransform="rotate(180,612.90422,193.7284)" /><linearGradient
     inkscape:collect="always"
     xlink:href="#linearGradient2592"
     id="linearGradient2751"
     gradientUnits="userSpaceOnUse"
     gradientTransform="rotate(-90,620.91222,259.30674)"
     x1="678.48285"
     y1="218.19489"
     x2="678.48285"
     y2="153.24588" /><linearGradient
     inkscape:collect="always"
     xlink:href="#linearGradient2592"
     id="linearGradient2761"
     gradientUnits="userSpaceOnUse"
     gradientTransform="translate(-131.15675,16.016009)"
     x1="678.48285"
     y1="218.19489"
     x2="678.48285"
     y2="153.24588" /><linearGradient
     inkscape:collect="always"
     xlink:href="#linearGradient2592"
     id="linearGradient2765"
     gradientUnits="userSpaceOnUse"
     gradientTransform="rotate(90,604.73284,128.31426)"
     x1="678.48285"
     y1="218.19489"
     x2="678.48285"
     y2="153.24588" /></defs><sodipodi:namedview
   pagecolor="#ffffff"
   bordercolor="#666666"
   borderopacity="1"
   objecttolerance="10"
   gridtolerance="10"
   guidetolerance="10"
   inkscape:pageopacity="0"
   inkscape:pageshadow="2"
   inkscape:window-width="1848"
   inkscape:window-height="1016"
   id="namedview27"
   showgrid="false"
   inkscape:zoom="0.35904762"
   inkscape:cx="1000.1042"
   inkscape:cy="72.880613"
   inkscape:window-x="72"
   inkscape:window-y="27"
   inkscape:window-maximized="1"
   inkscape:current-layer="Layer_1"
   inkscape:document-rotation="0" />
<style
   type="text/css"
   id="style2">
	.st0{fill:#FFFFFF;stroke:#FFFFFF;stroke-width:10;stroke-miterlimit:10;}
	.st1{fill:#EE5050;stroke:#EE5050;stroke-width:3;stroke-linecap:round;stroke-miterlimit:10;}
	.st2{fill:#18214D;stroke:#18214D;stroke-width:10;stroke-miterlimit:10;}
</style>
<metadata
   id="metadata4">
	<ns:sfw>
		<ns:slices />
		<ns:sliceSourceBounds
   bottomLeftOrigin="true"
   height="436"
   width="1272.6"
   x="7"
   y="7" />
	</ns:sfw>
<rdf:RDF><cc:Work
     rdf:about=""><dc:format>image/svg+xml</dc:format><dc:type
       rdf:resource="http://purl.org/dc/dcmitype/StillImage" /></cc:Work></rdf:RDF></metadata>

<path
   class="st2"
   d="M553,330"
   id="path24" />
<g
   id="g2812"
   transform="matrix(5.4530625,0,0,5.5698658,-2756.6223,-890.85897)"
   style="stroke-width:0.685796"><g
     id="g2781"
     transform="translate(-7.145404,-1.5773544)"
     style="stroke-width:0.685796"><path
       d="m 579.47273,201.7364 a 32.146743,32.474627 0 0 0 -32.14712,-32.47451 32.146743,32.474627 0 0 0 -32.14662,32.47451 32.146743,32.474627 0 0 0 32.14662,32.4745 32.146743,32.474627 0 0 0 32.14609,-32.26005 24.357802,24.606248 0 0 1 -24.35678,24.39179 24.357802,24.606248 0 0 1 -24.3578,-24.60624 24.357802,24.606248 0 0 1 24.3578,-24.60626 24.357802,24.606248 0 0 1 24.35781,24.60626 z"
       style="fill:url(#linearGradient2747);fill-opacity:1;stroke-width:0.31663;stroke-miterlimit:4;stroke-dasharray:none"
       id="path2745" /><path
       d="m 547.32585,233.88326 a 32.474627,32.146743 0 0 0 32.47451,-32.14712 32.474627,32.146743 0 0 0 -32.47451,-32.14662 32.474627,32.146743 0 0 0 -32.4745,32.14662 32.474627,32.146743 0 0 0 32.26005,32.14609 24.606248,24.357802 0 0 1 -24.39179,-24.35678 24.606248,24.357802 0 0 1 24.60624,-24.3578 24.606248,24.357802 0 0 1 24.60626,24.3578 24.606248,24.357802 0 0 1 -24.60626,24.35781 z"
       style="fill:url(#linearGradient2751);fill-opacity:1;stroke-width:0.31663;stroke-miterlimit:4;stroke-dasharray:none"
       id="path2749" /><path
       d="m 515.17899,201.73638 a 32.146743,32.474627 0 0 0 32.14712,32.47451 32.146743,32.474627 0 0 0 32.14662,-32.47451 32.146743,32.474627 0 0 0 -32.14662,-32.4745 32.146743,32.474627 0 0 0 -32.14609,32.26005 24.357802,24.606248 0 0 1 24.35678,-24.39179 24.357802,24.606248 0 0 1 24.3578,24.60624 24.357802,24.606248 0 0 1 -24.3578,24.60626 24.357802,24.606248 0 0 1 -24.35781,-24.60626 z"
       style="fill:url(#linearGradient2761);fill-opacity:1;stroke-width:0.31663;stroke-miterlimit:4;stroke-dasharray:none"
       id="path2757" /><path
       d="m 547.32673,169.91716 a 32.474627,32.146743 0 0 0 -32.47451,32.14712 32.474627,32.146743 0 0 0 32.47451,32.14662 32.474627,32.146743 0 0 0 32.4745,-32.14662 32.474627,32.146743 0 0 0 -32.26005,-32.14609 24.606248,24.357802 0 0 1 24.39179,24.35678 24.606248,24.357802 0 0 1 -24.60624,24.3578 24.606248,24.357802 0 0 1 -24.60626,-24.3578 24.606248,24.357802 0 0 1 24.60626,-24.35781 z"
       style="fill:url(#linearGradient2765);fill-opacity:1;stroke-width:0.31663;stroke-miterlimit:4;stroke-dasharray:none"
       id="path2763" /></g><text
     id="text2775"
     y="232.63361"
     x="579.43085"
     style="font-size:84.79px;line-height:1.25;font-family:Ubuntu;-inkscape-font-specification:Ubuntu;fill:#ffffff;fill-opacity:1;stroke-width:1.45372"
     xml:space="preserve"><tspan
       style="font-style:normal;font-variant:normal;font-weight:bold;font-stretch:normal;font-family:Ubuntu;-inkscape-font-specification:'Ubuntu Bold';fill:#ffffff;fill-opacity:1;stroke-width:1.45372"
       y="232.63361"
       x="579.43085"
       id="tspan2773"
       sodipodi:role="line">wiin</tspan></text></g></svg>
